HIERARCHY
ROOT Hips
{
	OFFSET 0.000000 91.145912 0.000000
	CHANNELS 6 Xposition Yposition Zposition Xrotation Yrotation Zrotation
	JOINT RightUpLeg
	{
		OFFSET -7.978616 0.020706 -0.002301
		CHANNELS 6 Xposition Yposition Zposition Xrotation Yrotation Zrotation
		JOINT RightLeg
		{
			OFFSET 0.000000 -41.199947 -0.001895
			CHANNELS 6 Xposition Yposition Zposition Xrotation Yrotation Zrotation
			JOINT RightFoot
			{
				OFFSET 0.000000 -40.188824 -0.003193
				CHANNELS 6 Xposition Yposition Zposition Xrotation Yrotation Zrotation
				JOINT RightToeBase
				{
					OFFSET 0.000000 -7.939033 18.143217
					CHANNELS 6 Xposition Yposition Zposition Xrotation Yrotation Zrotation
					End Site
					{
						OFFSET 0.000000 19.804155 0.000000
					}
				}
			}
		}
	}
	JOINT LeftUpLeg
	{
		OFFSET 7.978616 0.018532 -0.002059
		CHANNELS 6 Xposition Yposition Zposition Xrotation Yrotation Zrotation
		JOINT LeftLeg
		{
			OFFSET 0.000000 -41.199947 -0.001895
			CHANNELS 6 Xposition Yposition Zposition Xrotation Yrotation Zrotation
			JOINT LeftFoot
			{
				OFFSET 0.000000 -40.188824 -0.003193
				CHANNELS 6 Xposition Yposition Zposition Xrotation Yrotation Zrotation
				JOINT LeftToeBase
				{
					OFFSET 0.000000 -7.939033 18.143217
					CHANNELS 6 Xposition Yposition Zposition Xrotation Yrotation Zrotation
					End Site
					{
						OFFSET 0.000000 19.804155 0.000000
					}
				}
			}
		}
	}
	JOINT Spine
	{
		OFFSET 0.000000 9.664871 -1.073875
		CHANNELS 6 Xposition Yposition Zposition Xrotation Yrotation Zrotation
		JOINT Spine1
		{
			OFFSET 0.000000 10.672615 0.000000
			CHANNELS 3 Xrotation Yrotation Zrotation
			JOINT Spine2
			{
				OFFSET 0.000000 9.745026 -0.008016
				CHANNELS 6 Xposition Yposition Zposition Xrotation Yrotation Zrotation
				JOINT Spine3
				{
					OFFSET 0.000000 9.734146 -0.008024
					CHANNELS 6 Xposition Yposition Zposition Xrotation Yrotation Zrotation
					JOINT LeftShoulder
					{
						OFFSET 2.982571 7.645615 0.000000
						CHANNELS 6 Xposition Yposition Zposition Xrotation Yrotation Zrotation
						JOINT LeftArm
						{
							OFFSET 14.068447 0.000000 0.000000
							CHANNELS 6 Xposition Yposition Zposition Xrotation Yrotation Zrotation
							JOINT LeftForeArm
							{
								OFFSET 30.140327 0.000000 0.000000
								CHANNELS 6 Xposition Yposition Zposition Xrotation Yrotation Zrotation
								JOINT LeftHand
								{
									OFFSET 24.636414 0.000000 0.000000
									CHANNELS 6 Xposition Yposition Zposition Xrotation Yrotation Zrotation
									End Site
									{
										OFFSET 0.000000 24.636414 0.000000
									}
								}
							}
						}
					}
					JOINT RightShoulder
					{
						OFFSET -2.982571 7.645615 0.000000
						CHANNELS 6 Xposition Yposition Zposition Xrotation Yrotation Zrotation
						JOINT RightArm
						{
							OFFSET -14.068447 0.000000 0.000000
							CHANNELS 6 Xposition Yposition Zposition Xrotation Yrotation Zrotation
							JOINT RightForeArm
							{
								OFFSET -30.140327 0.000000 0.000000
								CHANNELS 6 Xposition Yposition Zposition Xrotation Yrotation Zrotation
								JOINT RightHand
								{
									OFFSET -24.636414 0.000000 0.000000
									CHANNELS 6 Xposition Yposition Zposition Xrotation Yrotation Zrotation
									JOINT Prop1
									{
										OFFSET -9.043953 -1.004883 2.009767
										CHANNELS 6 Xposition Yposition Zposition Xrotation Yrotation Zrotation
										End Site
										{
											OFFSET 0.000000 9.318909 0.000000
										}
									}
								}
							}
						}
					}
					JOINT Neck
					{
						OFFSET 0.000000 13.630920 0.000000
						CHANNELS 6 Xposition Yposition Zposition Xrotation Yrotation Zrotation
						JOINT Head
						{
							OFFSET 0.000000 9.064621 0.017240
							CHANNELS 6 Xposition Yposition Zposition Xrotation Yrotation Zrotation
							End Site
							{
								OFFSET 0.000000 9.064636 0.000000
							}
						}
					}
				}
			}
		}
	}
}
MOTION
Frames: 6
Frame Time: 0.008333
68.545326 77.607330 208.812927 380.752256 -30.829756 9.556975 -7.978626 0.020708 -0.002296 -49.634049 2.091274 -9.736707 -0.000001 -41.199944 -0.001902 60.556696 -1.974016 -3.787619 -0.000026 -40.188820 -0.003210 -27.865078 -15.105592 -14.040492 0.000016 -7.939024 18.143219 -0.000000 0.000001 -0.000001 7.978599 0.018516 -0.002046 -45.593217 -14.458872 30.188692 0.000011 -41.199940 -0.001884 21.343002 1.248094 -1.467364 -0.000013 -40.188820 -0.003202 -23.765674 0.854153 -0.160549 0.000013 -7.939021 18.143229 -0.000001 0.000001 0.000002 -0.000016 9.664864 -1.073871 10.881086 4.702947 -2.290234 -1.021935 2.224000 -0.683817 0.000008 9.745029 -0.008008 4.798146 2.223831 -0.683499 0.000001 9.734139 -0.008024 9.434206 1.614242 -0.662561 2.982559 7.645618 0.000026 0.767683 -4.376498 -2.085724 14.068439 -0.000002 0.000026 -53.744552 4.945611 -58.164812 30.140327 0.000003 -0.000022 -17.471332 -84.983577 -51.689120 24.636427 0.000006 0.000000 24.567997 4.734778 -0.880173 -2.982582 7.645628 0.000016 4.442131 2.672717 -2.545437 -14.068451 -0.000002 -0.000010 -32.796168 -14.217633 78.734992 -30.140348 0.000000 -0.000015 -77.883459 4.929441 59.077025 -24.636423 -0.000000 -0.000010 -20.988592 -42.462487 -14.090435 -9.043962 -1.004870 2.009766 -6.057104 -10.803484 -217.158392 -0.000012 13.630929 0.000021 4.154021 6.998341 -8.235278 -0.000002 9.064583 0.017273 -27.725131 16.677136 -11.171446 
70.423714 76.364174 212.886765 379.747316 -35.502138 11.542723 -7.978631 0.020704 -0.002287 -48.818012 0.555953 -14.668203 -0.000006 -41.199947 -0.001909 60.008895 -3.071944 -5.613967 0.000002 -40.188835 -0.003194 -27.092989 -16.117189 -13.441058 -0.000009 -7.939033 18.143206 -0.000001 -0.000001 0.000003 7.978611 0.018524 -0.002044 -43.605847 -10.420128 28.669733 0.000007 -41.199921 -0.001888 25.301206 7.796278 -2.670996 0.000023 -40.188805 -0.003196 -24.743953 0.681461 -1.913537 0.000006 -7.939045 18.143217 0.000002 0.000001 0.000001 0.000002 9.664873 -1.073864 10.437686 4.588817 -2.405204 -1.218476 2.180238 -0.746990 -0.000006 9.745035 -0.008004 4.601974 2.180304 -0.746751 0.000002 9.734159 -0.008010 9.287060 1.577233 -0.707544 2.982562 7.645618 0.000022 2.182715 -3.333150 -3.611215 14.068454 0.000014 -0.000010 -46.281837 8.130828 -53.245460 30.140320 0.000000 -0.000011 9.783650 -79.714988 -19.756481 24.636395 0.000012 0.000000 25.811362 11.312345 -1.624477 -2.982584 7.645619 0.000020 4.704008 2.645137 -1.900379 -14.068450 0.000009 -0.000018 -30.164830 -15.947428 79.071153 -30.140320 0.000011 0.000007 -80.574567 3.054673 65.971568 -24.636398 -0.000037 0.000000 -32.729720 -29.578691 -18.010580 -9.043967 -1.004905 2.009749 -19.495721 -13.883028 -214.317607 -0.000013 13.630940 0.000021 5.564462 8.484606 -9.265847 0.000002 9.064641 0.017234 -24.927474 19.728957 -12.538953 
72.145485 75.448227 216.309769 378.617111 -38.666630 12.046426 -7.978632 0.020698 -0.002283 -48.267526 -0.518172 -17.871533 -0.000027 -41.199944 -0.001921 59.861820 -2.393999 -6.540906 0.000015 -40.188824 -0.003196 -26.949719 -15.364471 -12.358994 -0.000005 -7.939034 18.143213 0.000002 0.000000 -0.000001 7.978595 0.018525 -0.002053 -47.923527 -2.898161 27.569830 0.000009 -41.199944 -0.001902 32.379775 0.191057 1.024578 0.000011 -40.188808 -0.003225 -22.837743 3.013562 -7.393437 -0.000001 -7.939020 18.143169 -0.000003 -0.000002 0.000001 -0.000012 9.664873 -1.073858 10.122365 4.043705 -1.703643 -1.347289 1.892558 -0.478583 0.000010 9.745035 -0.008027 4.473775 1.892695 -0.478326 -0.000009 9.734136 -0.008040 9.192285 1.380777 -0.487638 2.982570 7.645616 0.000018 1.866468 -2.677835 -4.496869 14.068432 -0.000004 0.000002 -38.548150 12.828480 -51.037445 30.140339 0.000006 -0.000008 17.208619 -73.590521 -8.659040 24.636415 0.000019 -0.000008 29.216800 15.829235 -5.749966 -2.982570 7.645610 0.000011 3.560543 2.589203 -0.673626 -14.068458 -0.000011 -0.000009 -30.803644 -18.585049 77.524655 -30.140324 0.000003 0.000000 -82.516355 3.732826 69.863300 -24.636398 0.000008 -0.000015 -37.714242 -17.941671 -16.161653 -9.043952 -1.004892 2.009761 -30.808883 -4.210862 -209.911931 -0.000003 13.630930 0.000003 6.492729 9.819238 -9.960263 0.000002 9.064632 0.017241 -23.068288 22.364135 -13.354102 
73.426147 74.760269 218.843597 377.498053 -40.550946 11.790161 -7.978615 0.020708 -0.002298 -47.674526 -0.937952 -20.035687 -0.000008 -41.199944 -0.001893 59.920935 -1.457537 -6.800159 -0.000013 -40.188828 -0.003192 -26.838129 -14.097452 -10.805082 0.000019 -7.939025 18.143217 0.000000 0.000001 -0.000003 7.978625 0.018539 -0.002051 -52.691949 2.697072 27.805813 -0.000017 -41.199955 -0.001903 40.249325 -7.066634 5.531603 0.000020 -40.188828 -0.003160 -20.701847 4.271764 -12.855636 -0.000009 -7.939019 18.143219 -0.000003 -0.000003 -0.000001 0.000018 9.664868 -1.073849 10.024280 3.433377 -0.920178 -1.381925 1.571533 -0.175785 -0.000003 9.745036 -0.008012 4.438632 1.571540 -0.175588 -0.000024 9.734165 -0.008010 9.166290 1.161672 -0.239528 2.982587 7.645610 -0.000018 0.842152 -2.409318 -4.921076 14.068426 0.000001 0.000001 -32.368420 16.873649 -50.469811 30.140327 0.000021 -0.000021 18.947267 -68.630437 -4.484600 24.636414 0.000019 -0.000002 32.457657 17.954061 -9.364269 -2.982549 7.645612 -0.000014 2.231578 2.425064 0.443829 -14.068442 -0.000004 0.000015 -32.893214 -20.543215 75.391450 -30.140354 -0.000013 -0.000010 -83.967730 5.558009 71.431942 -24.636414 -0.000023 -0.000021 -38.730827 -9.949712 -12.822831 -9.043950 -1.004889 2.009719 -35.966181 8.913425 -203.393321 0.000023 13.630928 -0.000018 7.015452 10.731055 -10.295510 0.000008 9.064637 0.017249 -22.040505 24.105630 -13.654236 
74.509392 74.035011 221.131271 376.230780 -41.891712 11.309962 -7.978618 0.020705 -0.002298 -46.499224 -0.165849 -22.480417 -0.000031 -41.199940 -0.001876 59.879005 -1.508265 -5.997849 -0.000019 -40.188820 -0.003189 -26.150989 -12.523324 -8.166663 -0.000006 -7.939040 18.143221 -0.000000 -0.000000 0.000001 7.978608 0.018524 -0.002052 -53.616626 1.855079 28.684175 0.000004 -41.199959 -0.001899 46.140281 -4.679491 4.026564 0.000013 -40.188831 -0.003213 -19.611232 1.966603 -15.882218 0.000037 -7.939028 18.143246 -0.000001 0.000000 0.000000 0.000001 9.664855 -1.073881 10.244078 2.910822 -0.395768 -1.279140 1.306969 0.021175 0.000013 9.745037 -0.008004 4.541155 1.307089 0.021191 -0.000006 9.734140 -0.008021 9.243208 0.977837 -0.074233 2.982574 7.645602 0.000003 -0.748810 -2.734684 -5.269382 14.068449 0.000007 0.000003 -27.440859 20.578561 -49.530609 30.140335 0.000019 0.000013 17.641521 -64.824328 -4.827642 24.636414 0.000002 0.000021 32.375534 17.665586 -9.682078 -2.982572 7.645592 -0.000005 1.242955 1.955767 1.062688 -14.068453 -0.000009 0.000005 -35.380308 -21.319046 72.990011 -30.140291 -0.000019 0.000015 -85.415388 7.771423 70.329946 -24.636406 -0.000020 0.000015 -36.737504 -5.615504 -8.215255 -9.043939 -1.004879 2.009741 -36.055660 22.088048 -197.965438 -0.000001 13.630902 0.000005 7.192748 11.176931 -10.284418 0.000011 9.064640 0.017255 -21.741983 24.890726 -13.461175 
75.564430 73.199554 223.606400 374.589321 -42.949012 10.414659 -7.978628 0.020712 -0.002308 -44.623409 1.310152 -25.381661 0.000005 -41.199944 -0.001924 59.773171 -1.827730 -4.571316 -0.000016 -40.188820 -0.003186 -24.970835 -10.326269 -4.177237 -0.000014 -7.939030 18.143219 -0.000000 -0.000000 -0.000002 7.978606 0.018532 -0.002059 -52.531429 -2.539097 29.740522 0.000019 -41.199978 -0.001892 52.264235 2.166686 -1.651401 -0.000009 -40.188820 -0.003204 -18.938337 -2.649829 -17.488821 0.000018 -7.939032 18.143230 -0.000000 0.000002 0.000000 -0.000017 9.664869 -1.073901 10.680709 2.364431 0.092040 -1.080882 1.033538 0.201265 -0.000001 9.745010 -0.008019 4.739553 1.033589 0.201319 0.000001 9.734167 -0.008038 9.392127 0.785884 0.079528 2.982554 7.645602 -0.000001 -2.895673 -3.405591 -5.593758 14.068455 -0.000019 -0.000002 -22.938852 24.317096 -48.506781 30.140335 -0.000016 -0.000000 16.079075 -61.075736 -6.348316 24.636429 0.000022 0.000005 30.108860 15.425161 -8.274740 -2.982598 7.645617 0.000001 0.233328 1.138539 1.425873 -14.068467 0.000012 0.000002 -38.455393 -21.339391 69.766305 -30.140329 -0.000032 0.000002 -86.476636 11.576427 66.943859 -24.636410 0.000001 -0.000017 -32.846144 -3.287283 -2.445564 -9.043952 -1.004874 2.009728 -30.392163 37.333322 -194.922329 -0.000022 13.630908 -0.000001 7.161036 11.377861 -10.003090 0.000007 9.064622 0.017238 -21.891265 25.123804 -12.829307 
